<svg width="192" height="24" viewBox="0 0 192 24" fill="none" xmlns="http://www.w3.org/2000/svg">
<path d="M5 12H25" stroke="#8F8881" stroke-width="1.5" stroke-linecap="round" stroke-linejoin="round"/>
<path d="M11.2499 17C11.2499 17 5.00001 13.3176 5 12C4.99999 10.6824 11.25 7 11.25 7" stroke="#8F8881" stroke-width="1.5" stroke-linecap="round" stroke-linejoin="round"/>
<path d="M68.593 8.19486C69.0376 8.52237 69.1326 9.14837 68.8051 9.59306C68.5507 9.93847 68.2963 10.2668 68.0731 10.5528C67.6276 11.1236 67.0143 11.8882 66.3479 12.6556C65.6859 13.4181 64.9518 14.2064 64.2666 14.8119C63.9251 15.1136 63.5721 15.3911 63.2279 15.5986C62.9112 15.7895 62.476 16 61.9999 16C61.5238 16 61.0885 15.7895 60.7718 15.5986C60.4276 15.3911 60.0747 15.1136 59.7332 14.8119C59.0479 14.2064 58.3139 13.4181 57.6518 12.6556C56.9855 11.8882 56.3722 11.1236 55.9266 10.5528C55.7035 10.2668 55.449 9.93847 55.1946 9.59307C54.8671 9.14837 54.9621 8.52237 55.4068 8.19486C55.5856 8.0632 55.7936 7.99983 55.9998 8H61.9999H67.9999C68.2061 7.99983 68.4142 8.0632 68.593 8.19486Z" fill="#8F8881"/>
<path d="M101 2C101 1.44772 100.552 1 100 1C99.4477 1 99 1.44772 99 2V2.44885C99.3803 2.32821 99.7855 2.24208 100.215 2.17961C100.463 2.14357 100.725 2.11476 101 2.09173V2Z" fill="#8F8881"/>
<path d="M113 2.44885C112.62 2.32821 112.215 2.24208 111.785 2.17961C111.537 2.14357 111.275 2.11476 111 2.09173V2C111 1.44772 111.448 1 112 1C112.552 1 113 1.44772 113 2V2.44885Z" fill="#8F8881"/>
<path fill-rule="evenodd" clip-rule="evenodd" d="M107.029 2H104.971C103.023 1.99997 101.451 1.99994 100.215 2.17961C98.9254 2.3671 97.8568 2.76781 97.018 3.6746C96.1895 4.57031 95.8328 5.69272 95.6642 7.04866C95.5 8.36894 95.5 10.0541 95.5 12.1739V12.8261C95.5 14.9459 95.5 16.6311 95.6642 17.9513C95.8328 19.3073 96.1895 20.4297 97.018 21.3254C97.8568 22.2322 98.9254 22.6329 100.215 22.8204C101.451 23.0001 103.023 23 104.971 23H107.029C108.977 23 110.549 23.0001 111.785 22.8204C113.075 22.6329 114.143 22.2322 114.982 21.3254C115.811 20.4297 116.167 19.3073 116.336 17.9513C116.5 16.6311 116.5 14.9459 116.5 12.8261V12.1739C116.5 10.0541 116.5 8.36895 116.336 7.04866C116.167 5.69272 115.811 4.57031 114.982 3.6746C114.143 2.76781 113.075 2.3671 111.785 2.17961C110.549 1.99994 108.977 1.99997 107.029 2ZM98.4978 9C98.0392 9 97.8099 9 97.6639 9.14417C97.5178 9.28833 97.5149 9.51472 97.509 9.96751C97.5003 10.6407 97.5 11.3942 97.5 12.2432V12.7568C97.5 14.9616 97.5018 16.5221 97.6489 17.7045C97.7933 18.8656 98.0626 19.5094 98.4862 19.9673C98.8996 20.4142 99.4647 20.6903 100.503 20.8412C101.579 20.9975 103.004 21 105.05 21H106.95C108.996 21 110.421 20.9975 111.497 20.8412C112.535 20.6903 113.1 20.4142 113.514 19.9673C113.937 19.5094 114.207 18.8656 114.351 17.7045C114.498 16.5221 114.5 14.9616 114.5 12.7568V12.2432C114.5 11.3942 114.5 10.6407 114.491 9.96751C114.485 9.51472 114.482 9.28833 114.336 9.14417C114.19 9 113.961 9 113.502 9H98.4978Z" fill="#8F8881"/>
<path fill-rule="evenodd" clip-rule="evenodd" d="M100.75 13C100.75 12.3096 101.31 11.75 102 11.75H102.009C102.699 11.75 103.259 12.3096 103.259 13C103.259 13.6904 102.699 14.25 102.009 14.25H102C101.31 14.25 100.75 13.6904 100.75 13ZM104.746 13C104.746 12.3096 105.305 11.75 105.996 11.75H106.005C106.695 11.75 107.255 12.3096 107.255 13C107.255 13.6904 106.695 14.25 106.005 14.25H105.996C105.305 14.25 104.746 13.6904 104.746 13ZM108.741 13C108.741 12.3096 109.301 11.75 109.991 11.75H110C110.69 11.75 111.25 12.3096 111.25 13C111.25 13.6904 110.69 14.25 110 14.25H109.991C109.301 14.25 108.741 13.6904 108.741 13ZM100.75 17C100.75 16.3096 101.31 15.75 102 15.75H102.009C102.699 15.75 103.259 16.3096 103.259 17C103.259 17.6904 102.699 18.25 102.009 18.25H102C101.31 18.25 100.75 17.6904 100.75 17ZM104.746 17C104.746 16.3096 105.305 15.75 105.996 15.75H106.005C106.695 15.75 107.255 16.3096 107.255 17C107.255 17.6904 106.695 18.25 106.005 18.25H105.996C105.305 18.25 104.746 17.6904 104.746 17Z" fill="#8F8881"/>
<path d="M155.478 9.01106C155.485 9.01102 155.493 9.01101 155.5 9.01101C157.985 9.01101 160 11.0294 160 13.5193C160 15.8398 158.25 17.7508 156 18M155.478 9.01106C155.492 8.84606 155.5 8.67896 155.5 8.51009C155.5 5.46695 153.038 3 150 3C147.123 3 144.762 5.21267 144.52 8.03192M155.478 9.01106C155.375 10.1476 154.929 11.1846 154.243 12.0165M144.52 8.03192C141.984 8.27373 140 10.4139 140 13.0183C140 15.4417 141.718 17.4632 144 17.9273M144.52 8.03192C144.678 8.01687 144.838 8.00917 145 8.00917C146.126 8.00917 147.165 8.38194 148 9.01101" stroke="#8F8881" stroke-width="1.5" stroke-linecap="round" stroke-linejoin="round"/>
<path d="M150 13V21M150 13C149.3 13 147.992 14.9943 147.5 15.5M150 13C150.7 13 152.009 14.9943 152.5 15.5" stroke="#8F8881" stroke-width="1.5" stroke-linecap="round" stroke-linejoin="round"/>
<path fill-rule="evenodd" clip-rule="evenodd" d="M191.878 8.02038C192.143 8.50493 191.965 9.11257 191.48 9.37756C190.109 10.1275 188.821 11.6975 187.837 13.2032C187.358 13.9372 186.973 14.6207 186.709 15.1204C186.577 15.3697 186.476 15.5721 186.408 15.7105C186.374 15.7797 186.349 15.8328 186.332 15.8678L186.314 15.9063L186.31 15.9149L186.31 15.9159C186.155 16.2536 185.826 16.4782 185.455 16.4987C185.084 16.5191 184.733 16.3323 184.542 16.0135C184.231 15.494 183.738 15.0198 183.28 14.6581C183.058 14.4823 182.858 14.3437 182.715 14.2502C182.644 14.2036 182.587 14.1687 182.551 14.1464C182.532 14.1352 182.519 14.1273 182.511 14.1226L182.504 14.1187C182.025 13.845 181.858 13.2344 182.132 12.7548C182.405 12.275 183.016 12.1079 183.496 12.3815L183 13.2502C183.496 12.3815 183.495 12.3814 183.496 12.3815L183.497 12.3825L183.5 12.3838L183.506 12.3875L183.525 12.3989C183.541 12.4083 183.563 12.4212 183.59 12.4377C183.644 12.4705 183.719 12.5173 183.811 12.5772C183.993 12.6965 184.243 12.8696 184.52 13.0892C184.733 13.257 184.97 13.4587 185.209 13.6911C185.466 13.2297 185.787 12.685 186.163 12.1096C187.18 10.5529 188.692 8.62286 190.52 7.62282C191.005 7.35782 191.613 7.53582 191.878 8.02038Z" fill="#8F8881"/>
</svg>
